<?xml version="1.0" encoding="UTF-8" standalone="no"?>
<!-- Created with Inkscape (http://www.inkscape.org/) -->

<svg
   xmlns:dc="http://purl.org/dc/elements/1.1/"
   xmlns:cc="http://creativecommons.org/ns#"
   xmlns:rdf="http://www.w3.org/1999/02/22-rdf-syntax-ns#"
   xmlns:svg="http://www.w3.org/2000/svg"
   xmlns="http://www.w3.org/2000/svg"
   xmlns:sodipodi="http://sodipodi.sourceforge.net/DTD/sodipodi-0.dtd"
   xmlns:inkscape="http://www.inkscape.org/namespaces/inkscape"
   width="36.671421mm"
   height="36.626579mm"
   viewBox="0 0 36.671422 36.626579"
   version="1.1"
   id="svg8"
   sodipodi:docname="turnLeft.svg"
   inkscape:version="0.92.1 r">
  <defs
     id="defs2" />
  <sodipodi:namedview
     id="base"
     pagecolor="#ffffff"
     bordercolor="#666666"
     borderopacity="1.0"
     inkscape:pageopacity="0.0"
     inkscape:pageshadow="2"
     inkscape:zoom="1.4"
     inkscape:cx="-252.46684"
     inkscape:cy="-15.689633"
     inkscape:document-units="mm"
     inkscape:current-layer="layer1"
     showgrid="false"
     inkscape:window-width="1680"
     inkscape:window-height="998"
     inkscape:window-x="0"
     inkscape:window-y="0"
     inkscape:window-maximized="1"
     fit-margin-top="0"
     fit-margin-left="0"
     fit-margin-right="0"
     fit-margin-bottom="0" />
  <metadata
     id="metadata5">
    <rdf:RDF>
      <cc:Work
         rdf:about="">
        <dc:format>image/svg+xml</dc:format>
        <dc:type
           rdf:resource="http://purl.org/dc/dcmitype/StillImage" />
        <dc:title />
      </cc:Work>
    </rdf:RDF>
  </metadata>
  <g
     inkscape:label="Calque 1"
     inkscape:groupmode="layer"
     id="layer1"
     transform="translate(-110.42458,-149.71601)">
    <path
       style="fill:#000000;stroke-width:0.35277778"
       d=""
       id="path3731"
       inkscape:connector-curvature="0" />
    <path
       style="fill:#6cadda;fill-opacity:1;stroke-width:0.35277778"
       d="m 146.86178,186.1074 c 0.37834,-0.37833 0.2701,-18.53443 -0.12284,-20.60642 -0.77403,-4.0814 -3.02298,-7.09542 -6.61482,-8.8651 -2.34775,-1.15672 -2.38123,-1.16181 -8.41093,-1.27806 l -6.05379,-0.11671 0.50499,-1.93384 c 0.27775,-1.06361 0.4075,-2.24103 0.28833,-2.61649 -0.24744,-0.77963 -1.63302,-1.24493 -2.39511,-0.80433 -2.00673,1.16021 -13.63812,9.53961 -13.63303,9.82142 0.009,0.47562 13.50544,9.84939 14.37656,9.98474 1.10743,0.17207 1.93884,-0.92102 1.66813,-2.19318 -0.12742,-0.59883 -0.32355,-1.61681 -0.43584,-2.26217 l -0.20416,-1.17338 5.19719,0.11505 c 5.19713,0.11505 5.1972,0.11506 6.04774,1.10486 l 0.85055,0.98981 v 10.03449 10.0345 h 4.35092 c 2.39301,0 4.45676,-0.10583 4.58611,-0.23519 z"
       id="path3737"
       inkscape:connector-curvature="0" />
  </g>
</svg>
